# xmcd CD database file
#
# Track frame offsets:
#	150
#	25137
#	47089
#	69180
#	102068
#	123816
#	145709
#	167863
#	188787
#	211578
#
# Disc length: 3121 seconds
#
# Revision: 0
# Processed by: cddbd v1.5.2PL0 Copyright (c) Steve Scherf et al.
# Submitted via: CDex 1.70beta2
#
DISCID=7a0c2f0a
DTITLE=Varios - Salsa Classic's Vol. 2 - Voces del milenio [CD 2 de 2)
DYEAR=2006
DGENRE=Salsa
TTITLE0=La Solución - Feliz como una lombriz
TTITLE1=Marc Anthony - Palabras del alma
TTITLE2=Tito Rojas - Con Velo Y Corona
TTITLE3=Willie Colón - Idilio
TTITLE4=Willie Rosario - Quién rayos me mandaría
TTITLE5=Jerry Rivera - Qué hay de malo
TTITLE6=Orquesta de la Luz - Salsa y control
TTITLE7=Tito Nieves - Amores como tú
TTITLE8=Óscar León - Mentiras
TTITLE9=Kim de los Santos - Tomateros
EXTD=YEAR: 2006
EXTT0=
EXTT1=
EXTT2=
EXTT3=
EXTT4=
EXTT5=
EXTT6=
EXTT7=
EXTT8=
EXTT9=
PLAYORDER=
